<svg xmlns="http://www.w3.org/2000/svg" xmlns:xlink="http://www.w3.org/1999/xlink" xml:space="preserve" version="1.1" style="shape-rendering:geometricPrecision;text-rendering:geometricPrecision;image-rendering:optimizeQuality;" viewBox="0 0 846.66 1058.325" x="0px" y="0px" fill-rule="evenodd" clip-rule="evenodd"><defs><style type="text/css">
   
    .fil0 {fill:black}
   
  </style></defs><g><path class="fil0" d="M227.63 215.92l-36.1 0c0,138.26 0,276.55 0,414.81l36.1 0 0 -414.81zm27.39 156.48l336.62 0 0 -183.88c30.3,0 60.58,0 90.88,0l0 90.7 63.45 0 0 288.21 -63.45 0 0 90.7c-30.3,0 -60.58,0 -90.88,0l0 -183.84 -336.62 0 0 183.84c-30.31,0 -60.58,0 -90.88,0l0 -90.7 -63.45 0 0 -288.21 63.45 0 0 -90.7c30.3,0 60.57,0 90.88,0l0 183.88zm336.62 27.4l-336.62 0 0 47.09 336.62 0 0 -47.09zm27.39 -183.88l36.1 0c0,138.26 0,276.55 0,414.81l-36.1 0 0 -414.81zm63.49 90.69l36.06 0 0 233.43 -36.06 0 0 -233.43zm-518.38 0l-36.06 0 0 233.43 36.06 0 0 -233.43z"/></g></svg>