<svg xmlns="http://www.w3.org/2000/svg" xmlns:xlink="http://www.w3.org/1999/xlink" version="1.1" x="0px" y="0px" viewBox="0 0 500 625" style="enable-background:new 0 0 500 500;" xml:space="preserve"><style type="text/css">
	.st0{fill-rule:evenodd;clip-rule:evenodd;}
</style><g><path d="M375.9,366.1c-40,0-76.9-20.5-98.1-54h-55.4c-21.2,33.5-58.2,54-98.1,54C60.1,366.1,8,314,8,250s52.1-116.1,116.1-116.1   h251.7c64,0,116.1,52.1,116.1,116.1S439.9,366.1,375.9,366.1z M215.2,287.1h69.7c4.6,0,8.8,2.5,11,6.5c16,29.3,46.7,47.5,80,47.5   c50.3,0,91.1-40.9,91.1-91.1s-40.9-91.1-91.1-91.1H124.1C73.9,158.9,33,199.7,33,250s40.9,91.1,91.1,91.1c33.4,0,64-18.2,80-47.5   C206.4,289.6,210.6,287.1,215.2,287.1z"/><g><path d="M232.6,267.8h-14.8c-6.2,0-11.3-5.1-11.3-11.3v0c0-6.2,5.1-11.3,11.3-11.3h14.8c6.2,0,11.3,5.1,11.3,11.3v0    C243.9,262.7,238.9,267.8,232.6,267.8z"/><path d="M282.2,267.8h-14.8c-6.2,0-11.3-5.1-11.3-11.3v0c0-6.2,5.1-11.3,11.3-11.3h14.8c6.2,0,11.3,5.1,11.3,11.3v0    C293.5,262.7,288.5,267.8,282.2,267.8z"/></g><g><g><g><circle cx="373.3" cy="220.9" r="17.8"/><circle cx="373.3" cy="279.1" r="17.8"/></g><g><g><circle cx="402.4" cy="250" r="17.8"/><circle cx="344.1" cy="250" r="17.8"/></g></g></g><g><path d="M98.8,264.7H81.1c-4.3,0-7.7-3.4-7.7-7.7v-14c0-4.3,3.4-7.7,7.7-7.7h17.7c2.5,0,4.9,1.3,6.4,3.4l4.8,7     c1.8,2.6,1.8,6.1,0,8.7l-4.8,7C103.7,263.5,101.3,264.7,98.8,264.7z"/><path d="M142.8,235.3h17.7c4.3,0,7.7,3.4,7.7,7.7v14c0,4.3-3.4,7.7-7.7,7.7h-17.7c-2.5,0-4.9-1.3-6.4-3.4l-4.8-7     c-1.8-2.6-1.8-6.1,0-8.7l4.8-7C137.9,236.5,140.3,235.3,142.8,235.3z"/><path d="M106.1,228v-17.7c0-4.3,3.4-7.7,7.7-7.7h14c4.3,0,7.7,3.4,7.7,7.7V228c0,2.5-1.3,4.9-3.4,6.4l-7,4.8     c-2.6,1.8-6.1,1.8-8.7,0l-7-4.8C107.3,232.9,106.1,230.5,106.1,228z"/><path d="M135.5,272v17.7c0,4.3-3.4,7.7-7.7,7.7h-14c-4.3,0-7.7-3.4-7.7-7.7V272c0-2.5,1.3-4.9,3.4-6.4l7-4.8     c2.6-1.8,6.1-1.8,8.7,0l7,4.8C134.3,267.1,135.5,269.5,135.5,272z"/></g></g></g></svg>